<svg width="297mm" height="{{%HEIGHT}}mm" version="1.1" viewBox="0 0 297 {{%HEIGHT}}" xmlns="http://www.w3.org/2000/svg">

  <g transform="matrix(.6358 0 0 .6358 40.7 -4.729)">
    <g transform="matrix(.5548 0 0 .5548 -235.2 -273.7)" fill="#ffb3b3">
      <path d="m482.4 570.3c-1.642-2.489-3.883-4.49-5.555-6.949-0.0821-0.1215-0.2029-0.2249-0.3224-0.3137-1.298-0.9644-2.412-2.144-3.689-3.142-1.065-0.8316-2.169-1.6-3.308-2.322 0.2389-1.807-0.2202-3.497-0.4165-5.209-0.0687-0.6027-0.331-1.161-0.7542-1.612-1.953-2.079-3.834-4.232-6.146-5.942-0.7882-0.5827-1.438-1.315-2.118-2.02-1.693-1.758-3.416-3.482-5.56-4.726-0.6427-0.3731-1.24-0.4718-1.927-0.2883-0.6888 0.1849-1.374 0.3978-2.094 0.4345-3.427 0.1749-6.77 0.9384-10.12 1.562-3.465 0.6447-6.657 1.951-8.663 5.131-0.3357 0.5333-0.7682 0.4739-1.261 0.4765-3.232 0.0153-6.457-0.293-9.692-0.2209-1.013 0.0227-2.03-0.024-3.043-0.0567-2.9-0.0948-5.788 0.0668-8.667 0.3971-1.456 0.1662-1.448 0.1989-1.635 1.614-0.0501 0.3724-0.1228 0.7415-0.2036 1.108-0.7415 3.319-2.341 6.264-4.169 9.067-1.273 1.953-2.536 3.906-3.723 5.912-2.107 3.559-2.586 7.404-2.132 11.42 0.1348 1.191 0.6194 2.268 1.531 3.065 1.749 1.528 3.422 3.169 5.626 4.062 0.024 0.1302 0.0554 0.2389 0.0634 0.3491 0.2209 3.497 1.445 6.737 2.564 10 0.0721 0.2102 0.1962 0.4064 0.313 0.5987 1.008 1.664 1.743 3.396 1.657 5.411-0.0354 0.8369 0.2716 1.043 1.121 1.014 0.3744-0.0127 0.7495-0.0707 1.117-0.1408 1.077-0.2069 2.158-0.2029 3.179-0.1281 0.7495 1.835 1.43 3.619 2.203 5.362 0.6 1.354 1.572 2.385 3.041 2.83 1.69 0.5112 3.366 1.083 5.082 1.482 5.887 1.37 11.85 1.399 17.83 0.8082 3.538-0.3491 7.055-0.4392 10.5 0.6527 0.9204 0.2916 1.699 0.1034 2.339-0.6327 0.7442-0.8556 1.628-1.556 2.513-2.257 1.885-1.494 3.81-2.943 5.618-4.526 1.211-1.06 2.315-2.282 2.586-3.981 0.0647-0.4078 0.317-0.5473 0.6154-0.7222 3.519-2.058 5.975-4.978 7.185-8.902 0.638-2.07 1.729-3.89 2.932-5.684 1.881-2.805 3.48-5.799 5.557-8.48 0.1128-0.1462 0.1722-0.3337 0.2663-0.4965 0.8016-1.39 0.6361-2.689-0.2376-4.013zm-47.42-27.36c1.864-1.181 3.886-1.994 6.072-2.287 3.236-0.4332 6.403-1.321 9.687-1.426 0.4438-0.0147 0.9117-0.1008 1.32-0.2696 0.9704-0.4018 1.766-0.1802 2.618 0.3864 1.673 1.113 3.089 2.509 4.466 3.939 0.887 0.923 1.755 1.854 2.778 2.628 2.109 1.597 3.822 3.597 5.62 5.512 0.1515 0.1608 0.303 0.3604 0.3577 0.5673 0.3904 1.477 0.5693 2.981 0.634 4.705-1.426-0.9464-2.705-1.723-3.904-2.609-1.604-1.187-3.325-1.578-5.307-1.304-2.168 0.2997-4.352 0.0661-6.518-0.2102-0.4365-0.0554-0.8843-0.1682-1.317-0.4879 0.1588-0.4879 0.7121-0.6708 0.6881-1.244-0.8369-0.2276-0.9958 0.7876-1.749 0.927 0.333-0.8743 1.196-1.386 1.359-2.411-0.7595 0.0621-1.044 0.6154-1.423 1.03-0.3951 0.4345-0.6954 0.9644-1.253 1.246 0.5913-1.472 2.01-2.291 2.911-3.59-0.5259-0.313-0.8436 0.0107-1.152 0.2269-1.09 0.7642-1.944 1.761-2.724 2.829-0.2256 0.309-0.3684 0.7722-1.019 0.6594 1.105-2.021 3.001-3.292 4.347-5.036-2.684 0.907-4.155 3.182-5.866 5.188 1.202-3.145 3.924-4.994 6.382-7.322-1.406 0.1101-2.068 0.6314-5.983 4.46 0.6768-1.457 1.998-2.421 3.081-3.815-1.229 0.0647-1.761 0.9684-2.584 1.461 0.2069-0.4679 0.6054-0.7455 0.6914-1.286-0.8049-0.0647-1.121 0.6754-1.702 0.9664-1.004-0.6988-1.211 0.5339-1.905 0.7862-0.1375-0.2843 0.2563-0.5873 0.0347-0.867-0.0908-0.1148-0.2189-0.0888-0.2963-0.02-1.035 0.909-1.651 2.123-2.359 3.271-0.0954 0.1548-0.0968 0.3677-0.287 0.4638-0.2069 0.0287-0.3637-0.0447-0.5092-0.269 0.6527-1.237 1.783-2.217 2.248-3.632-1.311 0.554-2.702 0.933-3.457 2.527-0.7949-1.099-1.215-2.317-2.584-2.67-1.171-0.3017-2.351-0.4352-3.714-0.5646 0.6247-1.077 1.375-1.861 2.317-2.459zm26.94 40.53c0.0794 0.5606 0.1635 1.115 0.3791 1.642 0.2496 0.6094 0.0788 1.008-0.5673 1.207-0.7929 0.2449-1.509 0.6661-2.258 1.012-1.817 0.839-3.045 2.346-4.199 3.848-1.743 2.264-4.169 2.965-6.759 3.387-3.727 0.6073-7.496 0.6794-11.25 0.4198-3.067-0.2122-5.961-1.18-8.56-2.893-1.176-0.7742-1.948-1.835-2.326-3.438 0.6414 0.2543 1.153 0.4238 1.636 0.6547 3.363 1.612 6.887 1.681 10.47 1.073 1.443-0.2443 2.879-0.5379 4.228-1.149 1.044-0.4738 1.995-1.069 2.646-2.032 0.267-0.3944 0.5987-0.5179 1.038-0.5359 0.9804-0.0414 1.935-0.261 2.888-0.4765 0.56-0.1261 1.072-0.3637 1.466-0.7929 0.6507-0.7108 1.39-1.179 2.414-1.114 0.3444 0.022 0.5893-0.3224 0.7962-0.582 2.132-2.672 4.089-5.423 3.891-9.094-5e-3 -0.0934 0.0481-0.1916 0.1128-0.4325 0.7462 1.571 0.638 3.019 0.0974 4.466-0.598 1.6-1.516 3.01-2.577 4.344-0.3991 0.5006-0.9778 0.9397-0.9944 1.758 0.3884 0.0601 0.576-0.1695 0.7455-0.3951 0.901-1.203 1.825-2.385 2.598-3.681 1.418-2.379 1.88-4.815 0.5179-7.425 1.022-1.266 2-2.551 2.476-4.302 1.406 0.9537 2.149 2.185 2.271 3.732 0.1615 2.04-0.1395 4.053-0.6821 6.02-0.4332 1.568-0.7348 3.14-0.5026 4.779zm-5.746-4.975c0.4432-1.082-0.2603-2.445 0.9824-3.569-0.0647 1.411-0.3164 2.54-0.9824 3.569zm2.469-16.69c0.5479 0.2096 0.9644 0.572 1.378 0.929 0.5006 0.4325 0.9738 0.8943 1.564 1.44-0.911-0.1962-2.005-1.112-2.941-2.369zm1 2.946c0.2623 0.307 0.3304 0.6601 0.3417 1.046 0.0667 2.295-0.4832 4.347-1.992 6.172-1.746 2.112-3.356 4.338-4.996 6.537-0.8169 1.095-1.849 1.836-3.185 2.266-0.1915-0.6334 0.0467-1.055 0.1729-1.469 0.6581-2.158 1.394-4.261 2.939-6.018 0.9598-1.092 1.765-2.342 2.504-3.601 0.7148-1.219 0.6781-2.557-0.1074-3.747-2.004-3.035-4.55-5.487-7.892-7.028-0.4992-0.2303-1.039-0.3711-1.565-0.556 0.9871-1.415 2.639-1.106 3.882-0.6641 0.5693 0.2029 1.094 0.5319 1.525 0.9484 1.213 1.17 2.672 1.955 4.188 2.606 1.767 0.7595 2.987 2.104 4.185 3.508zm-11.13 16.26c-1.602 0.1662-3.2 0.0901-4.72-0.5513-2.598-1.095-5.066-2.443-7.454-3.935-1.146-0.7155-2.251-1.498-3.374-2.248-0.2089-0.1395-0.4592-0.2343-0.5887-0.5259 0.8236-0.5099 1.657-0.5139 2.507-0.2983 2.663 0.6728 5.238 1.592 7.717 2.774 1.388 0.6614 2.846 0.6647 4.301 0.4278 0.907-0.1475 1.653-0.6667 2.195-1.458 0.5733-0.8356 1.153-1.67 1.935-2.335 0.4018-0.3424 0.8056-0.6754 1.641-0.8369-2.493 2.62-3.467 5.708-4.158 8.987zm1.709-19.18c1.683 1.269 3.048 2.898 4.191 4.683 0.7188 1.123 0.4812 2.485-0.5226 3.35-0.4552 0.3931-0.9177 0.8056-1.492 0.9978-1.618 0.5413-2.714 1.693-3.684 3.019-1.398 1.915-3.388 2.452-5.516 1.458-2.491-1.165-5.065-2.079-7.715-2.807-1.086-0.2983-2.122-0.3317-3.202 0.0574-1.194 0.4318-1.415 0.285-2.021-0.869-0.6154-1.171-0.8963-2.467-1.401-3.68-0.0834-0.2002-0.1495-0.4705-0.0821-0.6581 0.6027-1.679 0.7088-3.541 1.86-5.053 0.636-0.1108 1.237 0.2096 1.871 0.2236 0.3838 9e-3 0.5973 0.2543 0.6374 0.6554 0.0614 0.6133 0.3657 1.132 0.644 1.669 0.295 0.5673 0.4392 1.175 0.4298 1.84-0.0267 1.882 0.8016 3.386 2.148 4.657 1.404 1.326 3.035 2.046 4.981 2.013 0.1855-3e-3 0.3744 0.0327 0.5586 0.0647 3.551 0.6127 7.41-1.17 9.195-4.294 0.3904-0.6834 0.867-1.401 0.4465-2.427-0.6054 0.4505-0.5586 1.13-1.071 1.54 0.0901-1.043 0.7782-1.92 0.4892-3.162-0.8716 1.333-1.03 2.824-2.162 4.096 0.4078-1.542 1.516-2.646 1.079-4.272-0.5046 0.9337-0.6841 1.907-1.446 2.772 0.251-1.408 1.091-2.705-0.0921-3.871-0.4785 0.0194-0.3371 0.4612-0.5339 0.6754-0.1362-0.4111-0.1729-0.8896-0.8149-1.028-0.1175 0.8957 0.2449 1.816-0.3537 2.686-0.0934-1.662-0.6848-3.043-1.908-4.073-0.9357-0.7882-2.087-0.3858-3.257-0.4398-0.8456-1.426-2.618-1.015-3.869-1.646-0.1081-0.3951 4e-3 -0.5973 0.3117-0.6768 0.1442-0.0374 0.295-0.0634 0.4438-0.0747 2.211-0.1695 4.416-0.2469 6.629 0.0594 2.028 0.2783 3.677 1.346 5.226 2.515zm-6.88 5.904c-0.0861-1.068-0.6688-1.891-1.588-2.467-0.5046-0.3157-1.081-0.5339-1.496-1.07 0.0768-0.604 0.4946-0.9491 1.009-1.211 1.815-0.925 3.822 0.0147 4.137 2.123 0.2296 1.536 0.313 3.136-0.3557 4.659-0.4352 0.9911-1.101 1.671-2.317 2.112 0.7782-1.436 0.7188-2.8 0.6107-4.145zm-3.651 2.493c-1.773-0.0247-3.251-0.5713-4.094-2.275 1.97 1.639 4.146 2.154 6.695 1.339-0.291 0.6994-1.055 0.9564-2.601 0.9357zm2.529-0.0414c0.022 0.5293-0.1528 0.8403-0.4265 1.224-0.927-0.3998-1.871 0.1241-2.877-0.2156 1.103-0.4305 2.274-0.2857 3.304-1.008zm-0.0174-1.874c-0.2489 0.6314-0.9204 0.6974-1.529 0.7308-0.6374 0.0354-1.263-0.0307-1.986-0.3177 1.053-0.2576 2.158 0.3317 3.039-0.7982-1.108 0.0194-2.055 0.1128-2.997 0.0107-1.227-0.1342-2.233-0.582-2.675-1.937 0.9437-0.6594 2.026-0.7742 3.072-0.9771 0.3724-0.0728 0.6054 0.2469 0.8823 0.4278 0.5333 0.347 1.108 0.6447 1.587 1.055 0.5353 0.4578 0.8817 1.105 0.606 1.806zm-2.816-4.627c-0.0647 0.2076-0.2643 0.2456-0.4485 0.2783-1.362 0.2336-2.668 0.6641-3.961 1.177-0.5379-0.9357-0.9604-1.827-0.8209-2.895 0.1235-0.9404 0.4852-1.291 1.45-1.317 1.735-0.0461 3.379 0.3397 5.082 0.9597-0.4932 0.6594-1.083 1.1-1.301 1.797zm2.12-5.625c-0.9778 0-1.95 0.0107-2.925 0.1322-1.616 0.2009-1.619 0.1762-2.203 1.731-1.428-0.1008-2.781 0.0934-3.173 1.852-0.7528-0.026-1.401-0.2289-2.028-0.4392-0.7662-0.2576-1.207 0.0154-1.564 0.6661-0.4505 0.8216-0.7809 1.695-1.2 2.718-0.5166-1.69 0.0707-3.428-0.7856-4.984-0.624 0.4772-0.5733 1.048-0.5673 1.538 0.022 1.766 0.0888 3.531 0.1802 5.296 0.02 0.4018 0.1322 0.8323 0.3197 1.187 0.9397 1.77 1.54 3.649 1.904 5.611 0.4372 2.353 1.259 4.491 3.315 5.938 1.064 0.7495 2.2 1.3 3.546 1.26 0.1482-5e-3 0.2997-0.022 0.4432-0.0581 0.0581-0.0153 0.0994-0.0974 0.2316-0.2383-0.5973-0.5159-1.466-0.2343-2.012-0.7208 0.3023-0.1748 0.7155 0.2223 1.083-0.1949-0.4064-0.7128-1.279-0.925-1.791-1.538-0.5252-0.6294-1.075-1.233-1.522-2.14 0.6427 0.1255 0.8897 0.4725 1.113 0.839 0.3751 0.6174 0.8316 1.161 1.415 1.589 0.3357 0.2469 0.7301 0.5653 1.119 0.4465 0.7522-0.2276 1.297 0.1635 1.891 0.4398 1.6 0.7435 3.047 1.785 4.711 2.413 2.429 0.9177 4.885 1.167 7.388 0.3551 0.4966-0.1608 0.9657-0.4098 1.447-0.6174-0.273 2.172-1.809 3.829-3.924 4.209-2.052 0.3684-4.083 0.3551-6.157-6e-3 -3.146-0.5473-6.243-1.321-9.387-1.876-1.464-0.2583-2.685-1.147-4.047-1.677-0.636-0.2469-0.6995-0.933-0.7388-1.543-0.1395-2.178-0.4211-4.333-0.909-6.466-0.2776-1.215-0.6174-2.405-1.125-3.537-0.8937-1.99-1.174-4.1-1.339-6.246-0.1615-2.099 0.9204-3.755 1.887-5.439 1.018-1.77 2.564-2.887 4.552-3.444 1.874-0.5259 3.681-1.317 5.7-1.136 1.534 0.1375 3.055 0.2556 4.502 0.8943 1.362 0.6007 1.816 1.669 1.91 3.005-0.4318 0.2943-0.8576 0.1815-1.259 0.1815zm-7e-3 -3.88c-2.153-1.013-4.456-1.195-6.798-1.111-0.3744 0.0133-0.7675 5e-3 -1.116 0.1175-1.748 0.5666-3.555 0.9724-5.221 1.766-1.55 0.7388-2.548 2.068-3.442 3.479-0.0801 0.1275-0.1388 0.267-0.2209 0.3924-2.132 3.256-1.893 6.732-0.7288 10.18 0.8783 2.602 1.818 5.172 2.196 7.902 0.1542 1.116 0.2576 2.24 0.3337 3.364 0.0974 1.425 0.7949 2.231 2.121 2.863 3.8 1.809 7.937 2.17 11.96 3.029 1.171 0.251 2.334 0.5833 3.611 0.5933-0.0868 0.552-0.4986 0.7462-0.8543 0.9824-1.448 0.9598-3.114 1.287-4.773 1.606-2.383 0.4605-4.797 0.5533-7.167 0.022-2.39-0.5359-4.715-1.386-6.58-3.023-1.571-1.379-2.553-3.215-3.226-5.208-0.4458-1.323-1.113-2.568-1.964-3.655-1.218-1.558-1.498-3.215-1.057-5.084 0.5693-2.414 0.861-4.881 1.289-7.322 0.2136-1.219 0.1195-2.471 0.2763-3.706 0.293-2.308 0.55-4.621 0.7615-6.938 0.0994-1.097 0.5493-1.739 1.636-2.12 1.516-0.5339 2.849-1.498 4.402-2.004 1.831-0.596 3.727-0.879 5.599-1.262 1.261-0.2576 2.551-9e-3 3.764 0.4538 1.544 0.5893 3.083 1.192 4.61 1.823 0.8356 0.3457 1.616 0.7922 2.112 1.617-0.337 0.6154-1.043 0.7328-1.52 1.239zm-37.12 26.48c-0.5059-0.0507-0.7989-0.3664-1.133-0.598-1.207-0.8369-2.282-1.839-3.401-2.785-0.9657-0.8162-1.506-1.849-1.616-3.115-0.327-3.758 0.1582-7.331 2.163-10.63 1.191-1.96 2.372-3.919 3.707-5.788 2.065-2.889 3.617-6.646 4.659-11.01 1.588-0.273 3.233-0.4458 4.873-0.4592 4.283-0.0354 8.567-0.1108 12.85 0.1495 2.249 0.1368 4.51 0.1061 6.764 0.1582 0.7522 0.0173 1.49 0.1301 2.231 0.283 1.095 0.2269 1.821 0.8169 2.211 1.921-0.4538 0.0667-0.8082-0.1835-1.179-0.3064-1.721-0.5693-3.458-0.6728-5.219-0.2316-1.348 0.3377-2.728 0.5139-4.072 0.8843-2.2 0.6054-4.075 1.917-6.17 2.747-0.8229 0.3264-0.9531 1.123-1.055 1.867-0.1829 1.339-0.307 2.688-0.4585 4.033-0.0213 0.1849-0.0547 0.3677-0.1034 0.6881-1.588-0.915-3.138-1.803-5.268-1.558 0.9417 0.8069 2.038 0.6314 2.866 1.317-0.58-0.1562-1.049 0.1368-1.533-0.028-0.4278-0.1455-0.8623-0.2576-1.319-0.1301 7e-3 0.0921-6e-3 0.2056 0.02 0.2142 1.743 0.638 2.996 1.966 4.383 3.106 0.4919 0.4045 0.5633 0.8169 0.1969 1.469-1.783-2.152-3.948-3.491-6.721-3.677 0.5379 0.6274 1.361 0.7288 2.046 1.081 0.7035 0.3617 1.408 0.7135 2.036 1.2 0.6414 0.4965 1.254 1.022 1.657 1.767-2.718-2-5.571-3.617-9.069-3.582 0.8182 0.614 1.882 0.618 2.752 1.134-0.2623 0.313-0.6934-0.0287-0.9511 0.2596 4e-3 0.3537 0.4084 0.2676 0.5413 0.4879-0.3384 0.1475-0.7435-0.1261-1.103 0.2316 0.6487 0.4618 1.5 0.4211 2.231 0.9537-0.9771 0.0174-1.743-0.6174-2.692-0.355 0.3023 0.638 1.028 0.5059 1.397 0.911-0.2343 0.271-0.5112 0.0794-0.7655 0.0621-0.2937-0.02-0.5893-0.1061-0.8957 0.1088 0.0901 0.4131 0.54 0.325 0.7709 0.5893-0.5226 0.1715-1.089-0.1322-1.794 0.251 1.726 0.6801 3.47 0.8977 4.74 2.13-1.129-0.016-2.121-0.8369-3.442-0.5319 0.7208 0.8116 1.829 0.5453 2.613 1.275-0.945 0.1034-1.774-0.3704-2.71 0.0788 0.62 0.4218 1.264 0.1655 1.807 0.5893-0.5907 0.8009-1.295 1.526-2.09 2.086-1.912 1.344-2.776 3.308-3.422 5.415-0.5373 1.752-1.021 3.524-1.329 5.337zm5.875 17.47c-0.2916-0.1482-0.263-0.3951-0.2563-0.6067 0.0594-1.803-0.7068-3.334-1.476-4.901-1.651-3.363-2.815-6.924-2.955-10.67-0.1235-3.317 1.067-6.415 2.491-9.388 0.0948-0.1989 0.2363-0.3964 0.4045-0.5366 1.816-1.516 3.385-3.312 5.321-4.697 1.428-1.023 2.984-1.335 4.767-1.053-0.2883 2.304-0.7068 4.477-1.13 6.649-0.3357 1.722 0.0247 3.258 1.048 4.691 0.9804 1.374 1.805 2.832 2.321 4.472 0.2977 0.9444 0.8823 1.798 1.422 2.857-1.053-0.6527-1.43-1.779-2.471-2.335-0.0868 1.024 0.7015 1.54 1.091 2.471-1.01-0.5806-1.506-1.454-2.217-2.131-0.1261 0.5953-0.1261 0.5953 0.6087 2.149-0.8623-0.4745-1.295-1.271-2.066-1.743-0.3484 0.556 0.3337 0.867 0.2536 1.319-0.927-0.4418-1.863-0.849-2.619-1.598 0.5867 1.584 1.867 2.589 2.909 3.79-0.1435 0.2142-0.2376 2e-3 -0.331-0.038-0.0994-0.0434-0.1782-0.1348-0.265-0.2056-1.375-1.121-2.551-2.428-3.713-3.766-1.124-1.293-1.986-2.71-2.638-4.278-0.0821-0.1969-0.1195-0.4465-0.4365-0.5259-0.1789 0.5753 0.046 1.093 0.2182 1.6 1.105 3.246 3.091 5.861 5.591 8.192 4.387 4.09 9.762 5.929 15.45 7.154 0.4038 0.0868 0.8236 0.1208 1.213 0.2489 4.221 1.394 8.545 1.019 12.86 0.7522 1.988-0.1235 3.957-0.4044 5.878-0.9978 1.618-0.5006 3.079-1.2 4.106-2.612 0.1308-0.1809 0.2883-0.3484 0.5166-0.4252 0.1648 0.2429-0.0214 0.4498-0.1141 0.622-1.03 1.918-2.092 3.813-3.566 5.448-0.9958 1.105-2.295 1.659-3.616 2.202-0.1729 0.0707-0.3758 0.0801-0.5359 0.1715-2.614 1.482-5.38 0.9924-8.133 0.6334-3.984-0.5192-7.964-1.062-11.98-1.33-3.224-0.2156-6.424-0.7168-9.587-1.377-2.796-0.582-5.581-0.6708-8.357-0.2096zm30.41 4.693c-1.235-0.1588-2.443-0.3577-3.641-0.8983 1.304-0.291 1.992-0.1241 3.641 0.8983zm23.71-2.864c-0.8069 1.251-1.926 2.198-3.086 3.099-2.313 1.799-4.707 3.502-6.75 5.623-0.4031 0.4178-0.863 0.4298-1.348 0.271-2.803-0.9157-5.692-0.9724-8.593-0.8409-1.313 0.0594-2.619 0.2469-3.93 0.3397-5.386 0.3798-10.75 0.287-16.02-1.008-1.567-0.3844-3.101-0.901-4.649-1.362-0.863-0.2576-1.544-0.7722-2.033-1.523-1.055-1.622-1.524-3.503-2.266-5.263-0.036-0.0861 0.0227-0.2122 0.0554-0.4585 2.458 0.4211 4.809 0.945 7.189 1.198 2.289 0.243 4.318 0.9731 6.329 2.082 3.473 1.917 7.328 2.646 11.24 3.047 0.9337 0.0954 1.876 0.1942 2.811 0.1662 0.5446-0.016 1.366 0.4011 1.543-0.6207 0.626-0.1008 1.215-0.3677 1.874-0.3204 1.165 0.0821 2.33 0.0487 3.489-0.1041 0.3244-0.0434 0.6774-7e-3 0.7896-0.4679 0.0908-0.3758 0.4959-0.2596 0.7568-0.3504 0.5193-0.1809 1.101-0.2096 1.505-0.7442-0.9818-0.1528-1.924 0.1855-2.877 0.2997-0.9778 0.1155-1.952 0.0727-2.928 0.0934-1.001 0.022-1.994-0.0334-2.968-0.3384 2.778-0.265 5.631 0.287 8.476-0.8843-0.5606-0.4131-1.021 9e-3 -1.415-0.1915 0.0621-0.3818 0.3691-0.3511 0.6334-0.3677 1.2-0.0701 2.401-0.1101 3.599-0.2002 2.795-0.2096 5.465-0.9491 8.074-1.942 0.2776-0.1061 0.552-0.2189 0.889-0.3531 0.1588 0.5159-0.1822 0.8009-0.3884 1.121zm17.26-25.93c-0.2736 0.4038-0.5272 0.8216-0.8229 1.209-1.236 1.613-2.351 3.307-3.378 5.06-0.3237 0.5513-0.5873 1.152-0.9904 1.638-1.903 2.293-3.107 4.936-4.107 7.717-1.245 3.458-3.734 5.819-6.942 7.511-2.626 1.384-5.471 2.109-8.326 2.729-1.651 0.3591-3.394 0.289-5.097 0.4111-0.0314-0.0727-0.0641-0.1455-0.0954-0.2182 1.882-1.416 3.037-3.385 4.219-5.338 0.9384-1.55 1.648-3.196 2.132-4.936 0.1054-0.3771 0.331-0.5673 0.6114-0.7528 1.038-0.6841 2.116-1.281 3.293-1.708 1.41-0.5099 1.717-1.181 1.235-2.621-0.4285-1.28-0.4258-2.577-0.2776-4.032 0.7041 0.6494 0.2716 1.693 1.127 2.299 0.3617-1.845-1.046-3.471-0.2276-5.205 0.5646 2.13 0.9758 4.288 1.196 6.658 0.6481-0.4652 0.5786-1.004 0.55-1.476-0.0974-1.651-0.4044-3.276-0.7508-4.89-0.1495-0.6948-0.3684-1.377-0.5847-2.055-0.1148-0.3591-0.271-0.7001-0.0327-1.311 1.172 3.341 1.481 6.677 2.268 9.916 0.4498-1.11 0.1896-2.227 0.0748-3.414 0.3557 0.4812 0.2983 1.081 0.8096 1.399-0.1348-2.54-0.7916-4.984-1.205-7.472 0.9157 1.708 1.192 3.66 2.111 5.643 0.2696-0.8776 0.5653-1.46 0.4585-2.186-0.2076-1.406-0.576-2.789-0.6074-4.224-7e-3 -0.3591-0.1962-0.7208-0.3357-1.068-1.039-2.589-2.319-5.051-3.888-7.361-0.1655-0.2443-0.325-0.4919-0.5473-0.8276 1.199 0.7782 3.164 3.769 4.139 6.201 0.9317 2.325 1.225 4.821 1.838 7.253 0.2863-0.1322 0.2563-0.291 0.2496-0.4305-0.3557-7.55-3.919-13.36-9.818-17.84-2.094-1.587-4.557-2.442-7.176-2.788-0.7482-0.0988-1.476-0.2449-2.151-0.6174-0.5626-0.3097-1.185-0.4332-1.822-0.5479-1.518-0.2736-2.787 0.1562-3.709 1.352-0.4178 0.5426-0.7742 0.4438-1.298 0.2543-0.1542-1.158-0.4945-2.258-1.315-3.271 1.373-1.195 2.985-1.717 4.726-1.861 1.616-0.1342 3.189 0.0634 4.78 0.4939 2.33 0.6307 4.759 0.7568 7.153 0.4725 1.845-0.2189 3.444 9e-3 5 1.115 2.906 2.067 5.897 4.016 8.678 6.253 1.841 1.481 3.621 3.021 4.992 4.998 1.111 1.602 2.619 2.888 3.7 4.535 0.7428 1.138 0.945 2.18 0.1628 3.332zm-17.75-6.589c1.857 2.852 3.579 5.77 4.061 9.228-1.104-3.184-2.465-6.254-4.061-9.228z" fill="#ffb3b3" stroke-width=".1709"/>
    </g>
   <g x="-0.31749898" font-family="Lusitana" style="line-height:1.25;paint-order:stroke markers fill" xml:space="preserve" font-style="italic" stroke="#ffffff" stroke-width=".4161" font-size="10.58px">
      {{%MSGS}}
    </g>
  </g>
  <path d="M0,1 l-1,1" fill="none" stroke="#000" stroke-dasharray="0.262625, 1.0505" stroke-width=".2626"/>
</svg>
